# xmcd
#
# Track frame offsets: 
#        150
#        16749
#        33894
#        47403
#        67926
#        84429
#        95544
#        113357
#        142820
#        156157
#
# Disc length: 2317 seconds
#
# Revision: 0
# Processed by: cddbd v1.5.2PL0 Copyright (c) Steve Scherf et al.
# Submitted via: ExactAudioCopy v1.0b1
#
DISCID=64090b0a
DTITLE=Jon Amor Blues Group - Jon Amor Blues Group
DYEAR=2011
DGENRE=Modern Electric Blues
TTITLE0=Holy Water
TTITLE1=Juggernaut
TTITLE2=Make It Your Trouble
TTITLE3=Repeat Offender
TTITLE4=Sweetheart
TTITLE5=Angel In a Black Dress
TTITLE6=The Underdogs
TTITLE7=When the Time Comes
TTITLE8=She Thought I Was an Eagle
TTITLE9=You Know It's Only Love
EXTD=
EXTT0=
EXTT1=
EXTT2=
EXTT3=
EXTT4=
EXTT5=
EXTT6=
EXTT7=
EXTT8=
EXTT9=
PLAYORDER=
